HIERARCHY
ROOT Hips
{
	OFFSET 0.000000 0.000000 0.000000
	CHANNELS 6 Xposition Yposition Zposition Xrotation Yrotation Zrotation
	JOINT LeftUpLeg_virtual
	{
		OFFSET 0.000000 0.000000 0.000000
		CHANNELS 3 Xrotation Yrotation Zrotation
		JOINT LeftUpLeg
		{
			OFFSET 10.205400 -3.823500 0.155100
			CHANNELS 3 Xrotation Yrotation Zrotation
			JOINT LeftLeg
			{
				OFFSET 0.708757 -12.982077 0.567790
				CHANNELS 3 Xrotation Yrotation Zrotation
				JOINT LeftFoot
				{
					OFFSET -0.708756 -10.717838 -2.184338
					CHANNELS 3 Xrotation Yrotation Zrotation
					JOINT LeftToeBase
					{
						OFFSET 0.108149 -7.191104 7.560241
						CHANNELS 3 Xrotation Yrotation Zrotation
						JOINT LeftToe_End
						{
							OFFSET 0.070230 0.081724 4.490308
							CHANNELS 3 Xrotation Yrotation Zrotation
							End Site
							{
								OFFSET 0 0 0
							}
						}
					}
				}
			}
		}
	}
	JOINT RightUpLeg_virtual
	{
		OFFSET 0.000000 0.000000 0.000000
		CHANNELS 3 Xrotation Yrotation Zrotation
		JOINT RightUpLeg
		{
			OFFSET -10.205400 -3.823500 0.005500
			CHANNELS 3 Xrotation Yrotation Zrotation
			JOINT RightLeg
			{
				OFFSET -0.708756 -12.982134 0.610632
				CHANNELS 3 Xrotation Yrotation Zrotation
				JOINT RightFoot
				{
					OFFSET 0.708754 -10.717769 -1.945823
					CHANNELS 3 Xrotation Yrotation Zrotation
					JOINT RightToeBase
					{
						OFFSET -0.108140 -7.191069 7.372968
						CHANNELS 3 Xrotation Yrotation Zrotation
						JOINT RightToe_End
						{
							OFFSET -0.070227 0.081735 4.479403
							CHANNELS 3 Xrotation Yrotation Zrotation
							End Site
							{
								OFFSET 0 0 0
							}
						}
					}
				}
			}
		}
	}
	JOINT Spine_virtual
	{
		OFFSET 0.000000 0.000000 0.000000
		CHANNELS 3 Xrotation Yrotation Zrotation
		JOINT Spine
		{
			OFFSET 0.000000 6.876099 0.125700
			CHANNELS 3 Xrotation Yrotation Zrotation
			JOINT Spine1
			{
				OFFSET 0.000000 5.730043 0.104720
				CHANNELS 3 Xrotation Yrotation Zrotation
				JOINT Spine1_split
				{
					OFFSET 0.000000 5.730043 0.104720
					CHANNELS 3 Xrotation Yrotation Zrotation
					JOINT Spine2
					{
						OFFSET 0.000000 5.730043 0.104720
						CHANNELS 3 Xrotation Yrotation Zrotation
						JOINT Neck_virtual
						{
							OFFSET 0.000000 0.000000 0.000000
							CHANNELS 3 Xrotation Yrotation Zrotation
							JOINT Neck
							{
								OFFSET 0.000000 10.314075 0.188496
								CHANNELS 3 Xrotation Yrotation Zrotation
								JOINT Head
								{
									OFFSET 0.000000 7.643700 -2.377400
									CHANNELS 3 Xrotation Yrotation Zrotation
									JOINT HeadTop_End
									{
										OFFSET 0.000000 43.788605 -13.619600
										CHANNELS 3 Xrotation Yrotation Zrotation
										End Site
										{
											OFFSET 0 0 0
										}
									}
								}
							}
						}
						JOINT LeftShoulder_virtual
						{
							OFFSET 0.000000 0.000000 0.000000
							CHANNELS 3 Xrotation Yrotation Zrotation
							JOINT LeftShoulder
							{
								OFFSET 2.196100 4.412489 0.087492
								CHANNELS 3 Xrotation Yrotation Zrotation
								JOINT LeftShoulder_split
								{
									OFFSET 2.196100 4.412489 0.087492
									CHANNELS 3 Xrotation Yrotation Zrotation
									JOINT LeftArm
									{
										OFFSET 8.771219 -2.981674 -0.026999
										CHANNELS 3 Xrotation Yrotation Zrotation
										JOINT LeftForeArm
										{
											OFFSET 8.512804 0.000000 -0.000000
											CHANNELS 3 Xrotation Yrotation Zrotation
											JOINT LeftHand
											{
												OFFSET 18.484802 0.000000 -0.000000
												CHANNELS 3 Xrotation Yrotation Zrotation
												End Site
												{
													OFFSET 0 0 0
												}
											}
										}
									}
								}
							}
						}
						JOINT RightShoulder_virtual
						{
							OFFSET 0.000000 0.000000 0.000000
							CHANNELS 3 Xrotation Yrotation Zrotation
							JOINT RightShoulder
							{
								OFFSET -2.196100 4.412496 0.070690
								CHANNELS 3 Xrotation Yrotation Zrotation
								JOINT RightShoulder_split
								{
									OFFSET -2.196100 4.412496 0.070690
									CHANNELS 3 Xrotation Yrotation Zrotation
									JOINT RightArm
									{
										OFFSET -8.771282 -2.981682 -0.094208
										CHANNELS 3 Xrotation Yrotation Zrotation
										JOINT RightForeArm
										{
											OFFSET -8.494598 0.000000 0.000000
											CHANNELS 3 Xrotation Yrotation Zrotation
											JOINT RightHand
											{
												OFFSET -18.483803 0.000000 0.000001
												CHANNELS 3 Xrotation Yrotation Zrotation
												End Site
												{
													OFFSET 0 0 0
												}
											}
										}
									}
								}
							}
						}
					}
				}
			}
		}
	}
}
MOTION
Frames: 5
Frame Time: 0.03333333
0.038265 31.974743 -1.057024 0.000000 0.000000 0.000000 -6.531792 -24.488873 2.331158 -13.339938 12.061155 10.844693 33.034517 9.032404 1.651097 -8.142877 20.555944 -15.629104 -0.911725 0.341648 -0.024305 0.000000 0.000000 0.000000 -5.793983 -23.518460 2.624789 -3.872193 -34.379300 -11.836810 33.468405 8.984885 -8.567704 -29.353803 -21.276593 5.223940 -5.375996 -0.600806 -1.697760 0.000000 0.000000 0.000000 -6.983228 -26.230838 1.544475 5.325813 -2.838877 -1.852310 1.342714 -2.774660 0.399946 0.768566 0.766570 0.008360 0.000000 0.000000 0.000000 0.953612 -2.425819 0.282116 2.008881 5.371907 -0.289318 0.064542 -19.094111 -3.526566 0.000000 0.000000 0.000000 1.373254 -2.585728 0.077099 -0.062158 -16.062257 -18.567504 -1.926188 -1.555642 -1.850388 16.339416 7.198282 -35.535685 171.365676 -82.252731 170.385803 0.000000 0.000000 0.000000 0.909100 -2.476872 0.310521 0.854874 15.245086 11.459643 2.709472 2.294909 0.019717 3.380482 28.086330 43.226297 -172.054104 83.808525 171.644075 0.000000 0.000000 0.000000 
-0.263060 32.027252 -0.939053 0.000000 0.000000 0.000000 -6.657089 -26.105951 1.976487 -12.643581 11.905728 11.394004 33.390292 9.582801 1.609473 -8.390070 21.324199 -14.824835 -1.150459 0.380524 -0.433042 0.000000 0.000000 0.000000 -5.940973 -25.082603 2.265783 -2.607549 -34.143583 -10.821697 32.301481 9.438289 -8.484539 -29.516133 -20.653305 5.094205 -5.372060 -0.624911 -1.654171 0.000000 0.000000 0.000000 -7.126534 -27.651392 1.242264 5.342221 -2.760977 -1.669427 1.325947 -2.652227 0.380118 0.722872 0.745641 0.000046 0.000000 0.000000 0.000000 0.938176 -2.313874 0.256718 1.980565 5.414118 -0.270638 0.115934 -19.095942 -3.281292 0.000000 0.000000 0.000000 1.337175 -2.468722 0.060110 -0.073800 -16.086699 -18.489397 -1.870514 -1.537777 -1.964052 15.563807 6.892079 -35.708123 171.455985 -82.599650 170.475170 0.000000 0.000000 0.000000 0.888262 -2.365719 0.267045 0.832348 15.293955 11.378219 2.744698 2.300585 0.042560 3.913269 27.398819 42.483384 -173.005987 83.020280 172.594113 0.000000 0.000000 0.000000 
-0.534726 32.078743 -0.816154 0.000000 0.000000 0.000000 -6.809203 -27.845216 1.614566 -12.294103 11.802608 11.820905 33.837946 9.932311 1.518021 -8.716883 21.652658 -13.772002 -1.461071 0.441782 -0.835762 0.000000 0.000000 0.000000 -6.141800 -26.652795 1.900763 -1.344719 -33.762271 -9.944481 31.276720 9.617401 -8.327399 -29.684948 -19.950371 4.968558 -5.210711 -0.680474 -1.629630 0.000000 0.000000 0.000000 -7.253789 -29.018103 0.947387 5.356916 -2.616604 -1.509766 1.298871 -2.513309 0.351771 0.681249 0.670949 -0.008987 0.000000 0.000000 0.000000 0.937633 -2.179328 0.225178 1.948501 5.454685 -0.288044 0.141489 -18.941347 -3.072028 0.000000 0.000000 0.000000 1.295029 -2.330375 0.032473 -0.089133 -16.123616 -18.407189 -1.809686 -1.526750 -2.066428 14.819759 6.546534 -35.863097 171.686517 -82.925204 170.704227 0.000000 0.000000 0.000000 0.862395 -2.233839 0.223926 0.819850 15.371081 11.322503 2.721888 2.315444 0.042559 4.475018 26.552405 41.834034 -173.812714 82.189777 173.408845 0.000000 0.000000 0.000000 
-0.776002 32.133186 -0.685692 0.000000 0.000000 0.000000 -6.979978 -29.660670 1.245479 -12.437221 11.733309 12.092475 34.299134 9.983880 1.392362 -8.874335 21.344338 -12.680441 -1.804056 0.506886 -1.175963 0.000000 0.000000 0.000000 -6.356034 -28.214613 1.538866 -0.202407 -33.279588 -9.231672 30.387074 9.529666 -8.123139 -29.768270 -19.197901 4.913376 -5.020573 -0.745508 -1.632588 0.000000 0.000000 0.000000 -7.363590 -30.348006 0.664119 5.376624 -2.408757 -1.372879 1.267037 -2.366605 0.316735 0.658014 0.559570 -0.018934 0.000000 0.000000 0.000000 0.954824 -2.030400 0.187940 1.903984 5.489612 -0.326746 0.127478 -18.643355 -2.895961 0.000000 0.000000 0.000000 1.250670 -2.179927 -0.003793 -0.104354 -16.158971 -18.330785 -1.746690 -1.510347 -2.147516 14.136815 6.179404 -35.991709 171.988111 -83.218028 171.006189 0.000000 0.000000 0.000000 0.836918 -2.090960 0.183043 0.815931 15.453967 11.288998 2.661980 2.327190 0.019492 5.035312 25.659475 41.270861 -174.515322 81.325355 174.129102 0.000000 0.000000 0.000000 
-0.985765 32.198330 -0.560278 0.000000 0.000000 0.000000 -7.121600 -31.438664 0.899515 -13.115678 11.692149 12.132809 34.669699 9.705415 1.263562 -8.696537 20.273772 -11.667286 -2.138321 0.561866 -1.416649 0.000000 0.000000 0.000000 -6.546371 -29.766156 1.200099 0.807881 -32.699012 -8.655198 29.557493 9.213596 -7.901229 -29.715172 -18.397640 4.934010 -4.823523 -0.798258 -1.641494 0.000000 0.000000 0.000000 -7.425946 -31.653661 0.394369 5.394471 -2.139357 -1.255286 1.236094 -2.214975 0.279787 0.643578 0.443125 -0.022137 0.000000 0.000000 0.000000 0.986157 -1.877263 0.146164 1.849036 5.520920 -0.369530 0.073429 -18.224217 -2.739091 0.000000 0.000000 0.000000 1.214839 -2.024750 -0.044143 -0.117122 -16.172927 -18.269122 -1.697809 -1.491068 -2.220543 13.542501 5.804596 -36.085088 172.290921 -83.468320 171.316198 0.000000 0.000000 0.000000 0.812449 -1.946833 0.144997 0.816860 15.521079 11.279697 2.586630 2.322498 -0.022572 5.560043 24.820062 40.792625 -175.119876 80.474341 174.766905 0.000000 0.000000 0.000000 
